<svg xmlns="http://www.w3.org/2000/svg" viewBox="0 0 1024 368.661"><path d="M63.442 0H1024v304.51l-64.331 64.151H0V63.332Z" fill="#41cd52"/><path d="M191.324 259.608c-3.7 1.137-11.1 1.707-17.356 1.707-61.177 0-79.387-33.576-79.387-99.588 0-65.16 18.495-101.581 79.387-101.581s79.1 36.136 79.1 101.581c0 44.1-8.25 72.272-31.014 87.353l23.9 38.413-29.308 13.658Zm29.023-97.881c0-48.373-8.82-73.982-46.379-73.982S127.3 113.354 127.3 161.727c0 48.94 8.821 71.987 46.666 71.987s46.381-22.193 46.381-71.987ZM323.336 142.377v62.6c0 21.341.853 28.738 15.65 28.738 7.968 0 23.332-.853 23.332-.853l1.422 24.754s-19.063 3.7-29.021 3.7c-32.154 0-42.113-11.95-42.113-52.924v-66.015H274.4v-26.461h18.211V74.657h30.73v41.259H362.6v26.461Z" fill="#b3ff97"/><path d="M461.429 234.151c26.133 0 40.052-11.646 40.052-37.779V64h31.813v131.8c0 46.869-25.279 65.9-71.865 65.9-46.3 0-71.3-19.031-71.3-65.9V64h31.815v132.372c.003 26.417 13.637 37.779 39.485 37.779ZM609.989 142.97v62.492c0 21.3.852 28.689 15.623 28.689 7.953 0 23.292-.852 23.292-.852l1.42 24.712s-19.031 3.693-28.973 3.693c-32.1 0-42.039-11.93-42.039-52.834v-65.9h-18.18v-26.416h18.18V75.366h30.677v41.188h39.2v26.416ZM674.468 59.743h30.96V92.41h-30.96Zm0 56.811h30.96v142.025h-30.96ZM744.627 57.471h30.962v201.108h-30.962ZM913.353 145.811s-33.518-4.545-50.561-4.545-24.712 3.977-24.712 15.623c0 9.374 5.965 11.93 33.8 16.759 34.085 5.965 46.3 14.487 46.3 42.892 0 33.234-21.02 45.164-56.243 45.164-19.6 0-52.55-6.249-52.55-6.249l1.137-25.849s34.085 4.545 48.572 4.545c20.452 0 28.406-4.261 28.406-16.759 0-9.942-4.829-13.066-32.951-17.611-31.246-5.113-47.152-11.93-47.152-42.04 0-32.1 25-44.028 53.118-44.028 20.735 0 53.4 6.249 53.4 6.249Z" fill="#fff"/></svg>